<?xml version="1.0" encoding="UTF-8" standalone="no"?>
<!-- icon666.com - MILLIONS OF FREE VECTOR ICONS -->

<svg
   version="1.1"
   id="Capa_1"
   x="0px"
   y="0px"
   viewBox="0 0 427.6 427.6"
   style="enable-background:new 0 0 427.6 427.6;"
   xml:space="preserve"
   sodipodi:docname="accessory5.svg"
   inkscape:version="1.4 (e7c3feb100, 2024-10-09)"
   xmlns:inkscape="http://www.inkscape.org/namespaces/inkscape"
   xmlns:sodipodi="http://sodipodi.sourceforge.net/DTD/sodipodi-0.dtd"
   xmlns="http://www.w3.org/2000/svg"
   xmlns:svg="http://www.w3.org/2000/svg"><defs
     id="defs8" /><sodipodi:namedview
     id="namedview8"
     pagecolor="#ffffff"
     bordercolor="#000000"
     borderopacity="0.25"
     inkscape:showpageshadow="2"
     inkscape:pageopacity="0.0"
     inkscape:pagecheckerboard="0"
     inkscape:deskcolor="#d1d1d1"
     inkscape:zoom="2.857811"
     inkscape:cx="213.97496"
     inkscape:cy="213.8"
     inkscape:window-width="3440"
     inkscape:window-height="1408"
     inkscape:window-x="0"
     inkscape:window-y="0"
     inkscape:window-maximized="1"
     inkscape:current-layer="Capa_1" /><g
     id="g2"
     style="fill:#eff0f1;fill-opacity:1"><g
       id="g1"
       style="fill:#eff0f1;fill-opacity:1"><path
         d="M268.8,0H159.2c-19.6,0-36,16-36,36v298.4c0,19.6,16,36,36,36H182v51.2c0,3.2,2.8,6,6,6s6-2.8,6-6v-51.2h41.6v51.2 c0,3.2,2.8,6,6,6s6-2.8,6-6v-51.2h20.8c19.6,0,36-16,36-36V35.6C304.4,16,288.4,0,268.8,0z M292.8,334.4c0,13.2-10.8,24-24,24 H159.2c-13.2,0-24-10.8-24-24V35.6c0-13.2,10.8-24,24-24h109.6c13.2,0,24,10.8,24,24V334.4z"
         id="path1"
         style="fill:#eff0f1;fill-opacity:1" /></g></g><g
     id="g4"
     style="fill:#eff0f1;fill-opacity:1"><g
       id="g3"
       style="fill:#eff0f1;fill-opacity:1"><path
         d="M214,33.6c-26.4,0-47.6,21.6-47.6,47.6c0,26.4,21.6,47.6,47.6,47.6c26.4,0,47.6-21.6,47.6-47.6S240.4,33.6,214,33.6z M214,117.2c-19.6,0-36-16-36-36s16-36,36-36s36,16,36,36S233.6,117.2,214,117.2z"
         id="path2"
         style="fill:#eff0f1;fill-opacity:1" /></g></g><g
     id="g6"
     style="fill:#eff0f1;fill-opacity:1"><g
       id="g5"
       style="fill:#eff0f1;fill-opacity:1"><path
         d="M214,138.4c-26.4,0-47.6,21.6-47.6,47.6c0,26.4,21.2,47.6,47.6,47.6c26.4,0,47.6-21.6,47.6-47.6 C261.6,159.6,240.4,138.4,214,138.4z M214,222c-19.6,0-36-16-36-36c0-19.6,16-36,36-36s36,16,36,36C250,205.6,233.6,222,214,222z"
         id="path4"
         style="fill:#eff0f1;fill-opacity:1" /></g></g><g
     id="g8"
     style="fill:#eff0f1;fill-opacity:1"><g
       id="g7"
       style="fill:#eff0f1;fill-opacity:1"><path
         d="M214,242.8c-26.4,0-47.6,21.6-47.6,47.6c0,26.4,21.6,47.6,47.6,47.6c26.4,0,47.6-21.6,47.6-47.6S240.4,242.8,214,242.8z M214,326.4c-19.6,0-36-16-36-36c0-19.6,16-36,36-36s36,16,36,36S233.6,326.4,214,326.4z"
         id="path6"
         style="fill:#eff0f1;fill-opacity:1" /></g></g></svg>
