<?xml version="1.0" encoding="UTF-8" standalone="no"?>
<!-- icon666.com - MILLIONS OF FREE VECTOR ICONS -->

<svg
   viewBox="-106 1 511 511.999"
   version="1.1"
   id="svg2"
   sodipodi:docname="question.svg"
   inkscape:version="1.4 (e7c3feb100, 2024-10-09)"
   xmlns:inkscape="http://www.inkscape.org/namespaces/inkscape"
   xmlns:sodipodi="http://sodipodi.sourceforge.net/DTD/sodipodi-0.dtd"
   xmlns="http://www.w3.org/2000/svg"
   xmlns:svg="http://www.w3.org/2000/svg">
  <defs
     id="defs2" />
  <sodipodi:namedview
     id="namedview2"
     pagecolor="#ffffff"
     bordercolor="#000000"
     borderopacity="0.25"
     inkscape:showpageshadow="2"
     inkscape:pageopacity="0.0"
     inkscape:pagecheckerboard="0"
     inkscape:deskcolor="#d1d1d1"
     inkscape:zoom="2.3984422"
     inkscape:cx="255.58256"
     inkscape:cy="255.9995"
     inkscape:window-width="3440"
     inkscape:window-height="1408"
     inkscape:window-x="0"
     inkscape:window-y="0"
     inkscape:window-maximized="1"
     inkscape:current-layer="svg2" />
  <path
     d="m150.324219 0c-82.613281 0-149.824219 67.210938-149.824219 149.824219v1.867187c0 26.195313 21.3125 47.503906 47.503906 47.503906 7.296875 0 14.308594-1.617187 20.839844-4.808593 16.449219-8.039063 26.667969-24.398438 26.667969-42.695313v-1.867187c0-30.222657 24.589843-54.8125 54.8125-54.8125 30.226562 0 54.816406 24.589843 54.816406 54.8125 0 30.226562-24.589844 54.816406-54.816406 54.816406h-7.222657c-26.195312 0-47.503906 21.308594-47.503906 47.503906v78.492188c0 26.195312 21.308594 47.507812 47.503906 47.507812 26.195313 0 47.503907-21.3125 47.503907-47.507812v-36.480469c64.171875-17.871094 109.542969-76.691406 109.542969-144.332031.003906-82.613281-67.207032-149.824219-149.824219-149.824219zm10.28125 282.273438v48.363281c0 9.652343-7.851563 17.503906-17.503907 17.503906-9.648437 0-17.5-7.851563-17.5-17.503906v-78.492188c0-9.648437 7.851563-17.5 17.5-17.5h7.226563c46.765625 0 84.816406-38.050781 84.816406-84.820312 0-46.765625-38.050781-84.816407-84.816406-84.816407-46.769531 0-84.820313 38.050782-84.820313 84.816407v1.867187c0 6.742188-3.769531 12.773438-9.835937 15.738282-2.394531 1.167968-4.976563 1.761718-7.664063 1.761718-9.652343 0-17.503906-7.847656-17.503906-17.5v-1.867187c0-66.066407 53.75-119.820313 119.820313-119.820313 66.070312 0 119.824219 53.753906 119.824219 119.820313 0 57.460937-40.941407 106.96875-97.347657 117.710937-7.078125 1.347656-12.195312 7.535156-12.195312 14.738282zm0 0"
     id="path1"
     style="fill:#eff0f1;fill-opacity:1" />
  <path
     d="m142.324219 396.175781c-31.933594 0-57.910157 25.980469-57.910157 57.914063 0 31.929687 25.980469 57.910156 57.910157 57.910156 31.933593 0 57.910156-25.980469 57.910156-57.910156 0-31.933594-25.976563-57.914063-57.910156-57.914063zm0 85.820313c-15.386719 0-27.90625-12.519532-27.90625-27.90625 0-15.386719 12.519531-27.90625 27.90625-27.90625s27.90625 12.519531 27.90625 27.90625c0 15.386718-12.519531 27.90625-27.90625 27.90625zm0 0"
     id="path2"
     style="fill:#eff0f1;fill-opacity:1" />
</svg>
