<!-- icon666.com - MILLIONS vector ICONS FREE --><svg viewBox="0 0 496 496" xmlns="http://www.w3.org/2000/svg"><path d="m488 136c-45.144531 0-88.320312 8.34375-128 23.65625v-159.65625h-48v16h-112v-16h-48v382.265625c-3.105469 10.023437-5.769531 20.261719-8 30.679687v-20.945312c0-26.800781-16.574219-49.769531-40-59.289062v-188.710938c0-13.230469-10.769531-24-24-24s-24 10.769531-24 24v188.710938c-23.425781 9.519531-40 32.488281-40 59.289062v56c-8.824219 0-16 7.175781-16 16v16c0 8.824219 7.175781 16 16 16h352v-8c0-66.167969 53.832031-120 120-120h8v-232zm-144-120v150.320312c-5.414062 2.398438-10.734375 4.960938-16 7.625v-157.945312zm-89.792969 208h-54.207031v-32h96.542969c-14.917969 9.609375-29.085938 20.28125-42.335938 32zm-16.847656 16c-13.625 13.777344-26.152344 28.648438-37.359375 44.574219v-44.574219zm74.640625-144h-112v-16h112zm0 16v32h-112v-32zm0 48v16h-112v-16zm0-128v32h-112v-32zm-144-16h16v293.472656c-5.824219 9.984375-11.152344 20.304688-16 30.910156zm-88 120c4.40625 0 8 3.59375 8 8v48h-16v-48c0-4.40625 3.59375-8 8-8zm-8 72h16v120.550781c-2.625-.328125-5.289062-.550781-8-.550781s-5.375.222656-8 .550781zm-40 184c0-26.472656 21.527344-48 48-48s48 21.527344 48 48v56h-96zm112 88h-128v-16h128zm9.960938-28.511719c18.117187-168.472656 156.695312-295.503906 326.039062-299.398437v16.109375c-170.089844 4.207031-307.59375 141.710937-311.800781 311.800781h-8.199219v-16c0-5.054688-2.359375-9.574219-6.039062-12.511719zm40.949218-44.03125 130.363282 39.542969c-1.378907 5.441406-2.472657 10.976562-3.296876 16.609375l-135.550781-13.351563c1.820313-14.609374 4.664063-28.90625 8.484375-42.800781zm-10.039062 58.726563 135.5625 13.351562c-.007813.152344-.019532.3125-.027344.464844h-136.207031c.121093-4.632812.34375-9.238281.671875-13.816406zm145.050781-34.496094-130.347656-39.542969c4.632812-13.90625 10.234375-27.359375 16.746093-40.289062l120.105469 64.191406c-2.433593 5.082031-4.59375 10.289063-6.503906 15.640625zm14.054687-29.734375-120.089843-64.191406c7.242187-12.683594 15.359375-24.777344 24.289062-36.234375l105.230469 86.359375c-3.375 4.519531-6.519531 9.210937-9.429688 14.066406zm19.582032-26.425781-105.222656-86.359375c9.535156-11 19.839843-21.304688 30.839843-30.839844l86.359375 105.230469c-4.199218 3.792968-8.183594 7.777344-11.976562 11.96875zm24.328125-22.128906-86.359375-105.230469c11.457031-8.929688 23.5625-17.046875 36.234375-24.289063l64.191406 120.089844c-4.855469 2.917969-9.546875 6.0625-14.066406 9.429688zm28.160156-16.984376-64.191406-120.101562c12.9375-6.503906 26.390625-12.105469 40.289062-16.746094l39.542969 130.34375c-5.351562 1.921875-10.558594 4.082032-15.640625 6.503906zm30.953125-11.140624-39.542969-130.363282c13.894531-3.820312 28.191407-6.671875 42.808594-8.484375l13.351563 135.550781c-5.640626.824219-11.175782 1.917969-16.617188 3.296876zm32.535156-4.839844-13.351562-135.5625c4.578125-.328125 9.183594-.542969 13.816406-.664063v136.199219c-.152344.007812-.3125.019531-.464844.027344zm-127.304687 159.566406h-15.832031c4.066406-77.414062 66.1875-139.535156 143.601562-143.59375v15.832031c-68.632812 3.992188-123.769531 59.128907-127.769531 127.761719zm0 0" fill="#000000" style="fill: rgb(239, 240, 241);"></path><path d="m48 379.71875v32.5625l32 21.335938 32-21.335938v-32.5625l-32-21.335938zm48 24-16 10.664062-16-10.664062v-15.4375l16-10.664062 16 10.664062zm0 0" fill="#000000" style="fill: rgb(239, 240, 241);"></path></svg>