<?xml version="1.0" encoding="UTF-8" standalone="no"?>
<!-- icon666.com - MILLIONS OF FREE VECTOR ICONS -->

<svg
   id="Capa_1"
   enable-background="new 0 0 512 512"
   viewBox="0 0 512 512"
   version="1.1"
   sodipodi:docname="turnout.svg"
   inkscape:version="1.4 (e7c3feb100, 2024-10-09)"
   xmlns:inkscape="http://www.inkscape.org/namespaces/inkscape"
   xmlns:sodipodi="http://sodipodi.sourceforge.net/DTD/sodipodi-0.dtd"
   xmlns="http://www.w3.org/2000/svg"
   xmlns:svg="http://www.w3.org/2000/svg">
  <defs
     id="defs1" />
  <sodipodi:namedview
     id="namedview1"
     pagecolor="#ffffff"
     bordercolor="#000000"
     borderopacity="0.25"
     inkscape:showpageshadow="2"
     inkscape:pageopacity="0.0"
     inkscape:pagecheckerboard="0"
     inkscape:deskcolor="#d1d1d1"
     inkscape:zoom="2.3867188"
     inkscape:cx="256"
     inkscape:cy="256"
     inkscape:window-width="3440"
     inkscape:window-height="1408"
     inkscape:window-x="0"
     inkscape:window-y="0"
     inkscape:window-maximized="1"
     inkscape:current-layer="g1" />
  <g
     id="g1">
    <path
       d="m512 132.333v-30h-38.334v-42.666h-115.333v49.633c-27.098 5.164-53.569 13.184-79.2 24.025-8.53 3.608-16.898 7.507-25.105 11.676h-32.028v-96.803h42.667v-30h-42.667v-18.198h-30v18.198h-119.334v-18.198h-30v18.198h-42.666v30h42.667v96.802h-42.667v.599 114.734.599h42.667v97.401h-42.667v115.333h38.992c-.434 7.612-.659 38.334-.659 38.334h34.333v-38.333h119.334v38.333h30v-38.333h42.667v-101.244c24.453-32.143 56.817-57.12 93.667-72.661v24.572h115.333v-42.667h38.313v-30h-38.313v-119.334zm-68.333 162h-55.333v-204.667h55.333zm-413.667 149.334v-55.333h204.666v55.333zm65.398-85.334c14.4-35.123 34.368-67.95 59.439-97.401h37.163v97.401zm139.268-182.734v54.734h-204.666v-54.734-.599h204.666zm-162-127.401h119.334v96.802h-119.334zm43.79 212.735c-17.28 23.123-31.919 48.051-43.789 74.554v-74.554zm121.292 97.4h-15.748v-97.401h42.667v-.599-87.149c29.478-15.35 60.94-26.551 93.667-33.296v127.63c-48.069 17.592-90.125 49.099-120.586 90.815z"
       id="path1"
       style="fill:#eff0f1;fill-opacity:1" />
  </g>
</svg>
